<svg xmlns="http://www.w3.org/2000/svg" style="margin:auto;background:#ffffffff;display:block;" width="548" height="116" preserveAspectRatio="xMidYMid">
<g transform="translate(274,58)">
  <g transform="translate(0,0)"><g class="path" style="transform: scale(0.91); transform-origin: -196.38px 1.16345px; animation: 1s linear -0.6s infinite normal forwards running breath-d52287fb-9d3d-45fa-b337-666f4c74f9b4;"><path d="M19.30-16.38L19.30-16.38L19.30-16.38Q16.83-18.27 14.94-22.14L14.94-22.14L14.94-22.14Q13.05-26.01 13.05-30.87L13.05-30.87L13.05-30.87Q13.05-35.73 14.58-39.87L14.58-39.87L14.58-39.87Q16.11-44.01 19.13-47.38L19.13-47.38L19.13-47.38Q22.14-50.76 27.18-52.78L27.18-52.78L27.18-52.78Q32.22-54.81 37.89-54.81L37.89-54.81L37.89-54.81Q43.56-54.81 48.15-53.95L48.15-53.95L48.15-53.95Q52.74-53.10 55.35-52.16L55.35-52.16L55.35-52.16Q57.96-51.21 59.98-50.35L59.98-50.35L59.98-50.35Q62.01-49.50 63.27-49.00L63.27-49.00L63.27-49.00Q64.53-48.51 64.80-48.42L64.80-48.42L64.80-48.42Q65.07-48.33 66.24-47.88L66.24-47.88L66.24-47.88Q67.41-47.43 67.81-47.34L67.81-47.34L67.81-47.34Q68.22-47.25 69.25-46.89L69.25-46.89L69.25-46.89Q70.29-46.53 70.88-46.44L70.88-46.44L70.88-46.44Q71.46-46.35 72.45-46.13L72.45-46.13L72.45-46.13Q73.44-45.90 74.16-45.85L74.16-45.85L74.16-45.85Q74.88-45.81 75.87-45.72L75.87-45.72L75.87-45.72Q76.86-45.63 77.76-45.63L77.76-45.63L77.76-45.63Q82.17-45.63 85.45-47.11L85.45-47.11L85.45-47.11Q88.74-48.60 90.22-50.40L90.22-50.40L90.22-50.40Q91.71-52.20 92.61-54.54L92.61-54.54L92.61-54.54Q93.69-57.42 93.69-59.76L93.69-59.76L95.67-59.76L95.67-59.76Q95.67-57.60 94.55-54.49L94.55-54.49L94.55-54.49Q93.42-51.39 91.75-49.27L91.75-49.27L91.75-49.27Q90.09-47.16 86.40-45.45L86.40-45.45L86.40-45.45Q82.71-43.74 77.63-43.74L77.63-43.74L77.63-43.74Q72.54-43.74 67.41-45.36L67.41-45.36L67.41-45.36Q61.29-36.72 54.54-10.53L54.54-10.53L54.54-10.53Q51.21 2.61 44.95 8.59L44.95 8.59L44.95 8.59Q38.70 14.58 26.86 14.58L26.86 14.58L26.86 14.58Q15.03 14.58 9.18 7.38L9.18 7.38L9.18 7.38Q4.05 0.99 4.05-7.47L4.05-7.47L4.05-7.47Q4.05-8.55 4.14-9.63L4.14-9.63L6.21-9.63L6.21-8.37L6.21-8.37Q6.21-2.16 9.54 3.78L9.54 3.78L9.54 3.78Q10.98 6.30 13.00 8.14L13.00 8.14L13.00 8.14Q15.03 9.99 18.45 11.25L18.45 11.25L18.45 11.25Q21.87 12.51 26.10 12.51L26.10 12.51L26.10 12.51Q33.12 12.51 37.21 6.84L37.21 6.84L37.21 6.84Q41.31 1.17 45.13-15.07L45.13-15.07L45.13-15.07Q48.96-31.32 52.96-38.30L52.96-38.30L52.96-38.30Q56.97-45.27 64.62-46.35L64.62-46.35L64.62-46.35Q62.28-47.25 59.67-48.38L59.67-48.38L59.67-48.38Q57.06-49.50 54.67-50.35L54.67-50.35L54.67-50.35Q52.29-51.21 47.84-52.06L47.84-52.06L47.84-52.06Q43.38-52.92 37.89-52.92L37.89-52.92L37.89-52.92Q32.40-52.92 27.68-50.94L27.68-50.94L27.68-50.94Q22.95-48.96 20.34-45.72L20.34-45.72L20.34-45.72Q15.12-39.42 15.12-31.14L15.12-31.14L15.12-31.14Q15.12-26.46 16.83-22.90L16.83-22.90L16.83-22.90Q18.54-19.35 20.97-17.64L20.97-17.64L20.97-17.64Q25.92-14.31 29.97-13.86L29.97-13.86L31.68-13.68L31.14-11.70L31.14-11.70Q28.89-11.70 25.33-13.09L25.33-13.09L25.33-13.09Q21.78-14.49 19.30-16.38" fill="#71a7d1" stroke="none" stroke-width="none" transform="translate(-246.2400188446045,23.753453076102524)" style="fill: rgb(113, 167, 209);"></path></g><g class="path" style="transform: scale(0.91); transform-origin: -151.11px 6.65345px; animation: 1s linear -0.54s infinite normal forwards running breath-d52287fb-9d3d-45fa-b337-666f4c74f9b4;"><path d="M107.46 0.81L107.46 0.81L107.46 0.81Q99.54 0.81 98.82-6.12L98.82-6.12L98.82-6.12Q94.86 0.81 88.83 0.81L88.83 0.81L88.83 0.81Q82.80 0.81 79.24-2.83L79.24-2.83L79.24-2.83Q75.69-6.48 75.69-13.05L75.69-13.05L75.69-13.05Q75.69-23.31 80.73-29.16L80.73-29.16L80.73-29.16Q85.77-35.01 93.78-35.01L93.78-35.01L93.78-35.01Q100.35-35.01 102.51-28.80L102.51-28.80L102.51-28.80Q102.96-31.50 103.50-34.20L103.50-34.20L103.50-34.20Q110.16-34.20 113.40-34.74L113.40-34.74L114.57-35.01L108.36-0.99L108.36-0.99Q111.06-1.26 112.86-3.51L112.86-3.51L114.21-2.43L114.21-2.43Q111.51 0.81 107.46 0.81zM85.86-8.46L85.86-8.46Q85.86-4.41 86.89-2.83L86.89-2.83L86.89-2.83Q87.93-1.26 90.09-1.26L90.09-1.26L90.09-1.26Q92.25-1.26 94.50-3.60L94.50-3.60L94.50-3.60Q97.47-6.66 99.27-11.34L99.27-11.34L99.27-11.34Q99.54-12.51 100.30-16.96L100.30-16.96L100.30-16.96Q101.07-21.42 101.61-24.30L101.61-24.30L101.61-24.30Q101.34-27.72 99.72-30.24L99.72-30.24L99.72-30.24Q98.10-32.76 95.67-32.76L95.67-32.76L95.67-32.76Q91.26-32.76 88.56-24.88L88.56-24.88L88.56-24.88Q85.86-17.01 85.86-8.46L85.86-8.46" fill="#71a7d1" stroke="none" stroke-width="none" transform="translate(-246.2400188446045,23.753453076102524)" style="fill: rgb(98, 180, 213);"></path></g><g class="path" style="transform: scale(0.91); transform-origin: -107.19px 14.5285px; animation: 1s linear -0.48s infinite normal forwards running breath-d52287fb-9d3d-45fa-b337-666f4c74f9b4;"><path d="M124.83-33.21L124.83-33.21L124.83-33.21Q122.67-33.21 120.33-30.69L120.33-30.69L118.98-31.77L118.98-31.77Q119.61-33.03 121.77-34.02L121.77-34.02L121.77-34.02Q123.93-35.01 126.54-35.01L126.54-35.01L126.54-35.01Q134.73-35.01 134.73-27.63L134.73-27.63L134.73-27.63Q134.73-24.48 133.02-17.32L133.02-17.32L133.02-17.32Q131.31-10.17 131.31-7.65L131.31-7.65L131.31-7.65Q131.31-3.33 134.91-3.33L134.91-3.33L134.91-3.33Q137.88-3.33 140.72-7.38L140.72-7.38L140.72-7.38Q143.55-11.43 145.35-18.27L145.35-18.27L148.32-34.20L148.32-34.20Q154.98-34.20 158.04-34.74L158.04-34.74L159.21-35.01L153.54-3.15L153.54-3.15Q151.92 6.12 146.03 11.34L146.03 11.34L146.03 11.34Q140.13 16.56 130.77 16.56L130.77 16.56L130.77 16.56Q125.10 16.56 122.00 14.63L122.00 14.63L122.00 14.63Q118.89 12.69 118.89 9.58L118.89 9.58L118.89 9.58Q118.89 6.48 120.78 4.63L120.78 4.63L120.78 4.63Q122.67 2.79 126.13 2.79L126.13 2.79L126.13 2.79Q129.60 2.79 132.57 3.92L132.57 3.92L132.57 3.92Q135.54 5.04 136.89 5.22L136.89 5.22L136.71 6.84L136.71 6.84Q135.18 6.66 132.30 5.58L132.30 5.58L132.30 5.58Q129.42 4.50 126.58 4.50L126.58 4.50L126.58 4.50Q123.75 4.50 122.27 5.76L122.27 5.76L122.27 5.76Q120.78 7.02 120.78 9.40L120.78 9.40L120.78 9.40Q120.78 11.79 123.39 13.28L123.39 13.28L123.39 13.28Q126 14.76 129.87 14.76L129.87 14.76L129.87 14.76Q139.23 14.76 141.39 3.51L141.39 3.51L143.64-8.91L143.64-8.91Q139.86-0.63 132.21-0.63L132.21-0.63L132.21-0.63Q126.99-0.63 124.16-3.60L124.16-3.60L124.16-3.60Q121.32-6.57 121.32-11.97L121.32-11.97L121.32-11.97Q121.32-14.76 122.98-22.00L122.98-22.00L122.98-22.00Q124.65-29.25 124.83-33.21" fill="#71a7d1" stroke="none" stroke-width="none" transform="translate(-246.2400188446045,23.753453076102524)" style="fill: rgb(94, 111, 163);"></path></g><g class="path" style="transform: scale(0.91); transform-origin: -63.72px 14.5285px; animation: 1s linear -0.42s infinite normal forwards running breath-d52287fb-9d3d-45fa-b337-666f4c74f9b4;"><path d="M168.30-33.21L168.30-33.21L168.30-33.21Q166.14-33.21 163.80-30.69L163.80-30.69L162.45-31.77L162.45-31.77Q163.08-33.03 165.24-34.02L165.24-34.02L165.24-34.02Q167.40-35.01 170.01-35.01L170.01-35.01L170.01-35.01Q178.20-35.01 178.20-27.63L178.20-27.63L178.20-27.63Q178.20-24.48 176.49-17.32L176.49-17.32L176.49-17.32Q174.78-10.17 174.78-7.65L174.78-7.65L174.78-7.65Q174.78-3.33 178.38-3.33L178.38-3.33L178.38-3.33Q181.35-3.33 184.19-7.38L184.19-7.38L184.19-7.38Q187.02-11.43 188.82-18.27L188.82-18.27L191.79-34.20L191.79-34.20Q198.45-34.20 201.51-34.74L201.51-34.74L202.68-35.01L197.01-3.15L197.01-3.15Q195.39 6.12 189.50 11.34L189.50 11.34L189.50 11.34Q183.60 16.56 174.24 16.56L174.24 16.56L174.24 16.56Q168.57 16.56 165.47 14.63L165.47 14.63L165.47 14.63Q162.36 12.69 162.36 9.58L162.36 9.58L162.36 9.58Q162.36 6.48 164.25 4.63L164.25 4.63L164.25 4.63Q166.14 2.79 169.60 2.79L169.60 2.79L169.60 2.79Q173.07 2.79 176.04 3.92L176.04 3.92L176.04 3.92Q179.01 5.04 180.36 5.22L180.36 5.22L180.18 6.84L180.18 6.84Q178.65 6.66 175.77 5.58L175.77 5.58L175.77 5.58Q172.89 4.50 170.06 4.50L170.06 4.50L170.06 4.50Q167.22 4.50 165.73 5.76L165.73 5.76L165.73 5.76Q164.25 7.02 164.25 9.40L164.25 9.40L164.25 9.40Q164.25 11.79 166.86 13.28L166.86 13.28L166.86 13.28Q169.47 14.76 173.34 14.76L173.34 14.76L173.34 14.76Q182.70 14.76 184.86 3.51L184.86 3.51L187.11-8.91L187.11-8.91Q183.33-0.63 175.68-0.63L175.68-0.63L175.68-0.63Q170.46-0.63 167.63-3.60L167.63-3.60L167.63-3.60Q164.79-6.57 164.79-11.97L164.79-11.97L164.79-11.97Q164.79-14.76 166.45-22.00L166.45-22.00L166.45-22.00Q168.12-29.25 168.30-33.21" fill="#71a7d1" stroke="none" stroke-width="none" transform="translate(-246.2400188446045,23.753453076102524)" style="fill: rgb(49, 66, 144);"></path></g><g class="path" style="transform: scale(0.91); transform-origin: -20.61px 6.65345px; animation: 1s linear -0.36s infinite normal forwards running breath-d52287fb-9d3d-45fa-b337-666f4c74f9b4;"><path d="M237.96 0.81L237.96 0.81L237.96 0.81Q230.04 0.81 229.32-6.12L229.32-6.12L229.32-6.12Q225.36 0.81 219.33 0.81L219.33 0.81L219.33 0.81Q213.30 0.81 209.75-2.83L209.75-2.83L209.75-2.83Q206.19-6.48 206.19-13.05L206.19-13.05L206.19-13.05Q206.19-23.31 211.23-29.16L211.23-29.16L211.23-29.16Q216.27-35.01 224.28-35.01L224.28-35.01L224.28-35.01Q230.85-35.01 233.01-28.80L233.01-28.80L233.01-28.80Q233.46-31.50 234-34.20L234-34.20L234-34.20Q240.66-34.20 243.90-34.74L243.90-34.74L245.07-35.01L238.86-0.99L238.86-0.99Q241.56-1.26 243.36-3.51L243.36-3.51L244.71-2.43L244.71-2.43Q242.01 0.81 237.96 0.81zM216.36-8.46L216.36-8.46Q216.36-4.41 217.39-2.83L217.39-2.83L217.39-2.83Q218.43-1.26 220.59-1.26L220.59-1.26L220.59-1.26Q222.75-1.26 225-3.60L225-3.60L225-3.60Q227.97-6.66 229.77-11.34L229.77-11.34L229.77-11.34Q230.04-12.51 230.81-16.96L230.81-16.96L230.81-16.96Q231.57-21.42 232.11-24.30L232.11-24.30L232.11-24.30Q231.84-27.72 230.22-30.24L230.22-30.24L230.22-30.24Q228.60-32.76 226.17-32.76L226.17-32.76L226.17-32.76Q221.76-32.76 219.06-24.88L219.06-24.88L219.06-24.88Q216.36-17.01 216.36-8.46L216.36-8.46" fill="#71a7d1" stroke="none" stroke-width="none" transform="translate(-246.2400188446045,23.753453076102524)" style="fill: rgb(48, 57, 121);"></path></g><g class="path" style="transform: scale(0.91); transform-origin: 21.465px -4.19155px; animation: 1s linear -0.3s infinite normal forwards running breath-d52287fb-9d3d-45fa-b337-666f4c74f9b4;"><path d="M266.13 0.81L266.13 0.81L266.13 0.81Q260.46 0.81 257.85-2.97L257.85-2.97L250.29 2.43L248.58 2.43L258.66-56.52L258.66-56.52Q255.96-56.25 254.16-54L254.16-54L252.81-55.08L252.81-55.08Q255.51-58.32 259.61-58.32L259.61-58.32L259.61-58.32Q263.70-58.32 265.95-56.25L265.95-56.25L265.95-56.25Q268.20-54.18 268.20-50.40L268.20-50.40L268.20-50.40Q268.20-49.68 268.02-48.06L268.02-48.06L268.02-48.06Q266.58-40.05 264.51-28.80L264.51-28.80L264.51-28.80Q268.29-34.92 274.32-34.92L274.32-34.92L274.32-34.92Q280.35-34.92 283.59-31.45L283.59-31.45L283.59-31.45Q286.83-27.99 286.83-21.96L286.83-21.96L286.83-21.96Q286.83-11.34 281.07-5.26L281.07-5.26L281.07-5.26Q275.31 0.81 266.13 0.81zM265.50-1.62L265.50-1.62L265.50-1.62Q270.45-1.62 273.56-8.50L273.56-8.50L273.56-8.50Q276.66-15.39 276.66-25.65L276.66-25.65L276.66-25.65Q276.66-29.79 275.81-31.32L275.81-31.32L275.81-31.32Q274.95-32.85 272.70-32.85L272.70-32.85L272.70-32.85Q270.45-32.85 268.06-30.15L268.06-30.15L268.06-30.15Q265.68-27.45 264.60-25.06L264.60-25.06L264.60-25.06Q263.52-22.68 263.52-22.32L263.52-22.32L263.34-22.32L263.34-22.32Q261.09-10.53 260.01-4.50L260.01-4.50L260.01-4.50Q261.54-1.62 265.50-1.62" fill="#71a7d1" stroke="none" stroke-width="none" transform="translate(-246.2400188446045,23.753453076102524)" style="fill: rgb(120, 130, 227);"></path></g><g class="path" style="transform: scale(0.91); transform-origin: 113.85px 5.25845px; animation: 1s linear -0.24s infinite normal forwards running breath-d52287fb-9d3d-45fa-b337-666f4c74f9b4;"><path d="M332.82 13.77L332.82 13.77L332.82 12.06L332.82 12.06Q338.40 11.79 340.38 9.18L340.38 9.18L340.38 9.18Q342.36 6.57 344.07-2.88L344.07-2.88L352.71-52.65L352.71-52.65Q334.26-51.12 324.23-44.68L324.23-44.68L324.23-44.68Q314.19-38.25 314.19-27.90L314.19-27.90L314.19-27.90Q314.19-23.22 317.43-19.98L317.43-19.98L317.43-19.98Q319.68-17.82 323.37-16.70L323.37-16.70L323.37-16.70Q327.06-15.57 329.45-15.43L329.45-15.43L329.45-15.43Q331.83-15.30 332.01-15.48L332.01-15.48L332.01-13.59L332.01-13.59Q321.39-13.59 316.26-18.63L316.26-18.63L316.26-18.63Q312.48-22.14 312.48-27.90L312.48-27.90L312.48-27.90Q312.48-40.77 325.94-47.79L325.94-47.79L325.94-47.79Q339.39-54.81 363.96-54.81L363.96-54.81L363.96-54.81Q379.26-54.81 385.70-50.67L385.70-50.67L385.70-50.67Q392.13-46.53 392.13-39.38L392.13-39.38L392.13-39.38Q392.13-32.22 387.23-27.09L387.23-27.09L387.23-27.09Q382.32-21.96 374.31-19.17L374.31-19.17L374.31-19.17Q386.01 5.13 389.34 10.04L389.34 10.04L389.34 10.04Q392.67 14.94 397.35 14.94L397.35 14.94L397.35 14.94Q400.14 14.94 402.35 13.18L402.35 13.18L402.35 13.18Q404.55 11.43 405.45 8.46L405.45 8.46L407.70 8.46L407.70 8.46Q404.82 17.82 393.57 17.82L393.57 17.82L393.57 17.82Q386.46 17.82 381.83 14.45L381.83 14.45L381.83 14.45Q377.19 11.07 374.04 4.23L374.04 4.23L364.32-16.83L364.32-16.83Q360.72-16.47 359.01-16.47L359.01-16.47L359.01-16.47Q358.74-15.12 358.20-11.88L358.20-11.88L358.20-11.88Q357.66-8.64 357.30-7.02L357.30-7.02L357.30-7.02Q355.50 2.70 348.25 8.23L348.25 8.23L348.25 8.23Q341.01 13.77 332.82 13.77zM389.79-39.06L389.79-39.06L389.79-39.06Q389.79-52.83 364.77-53.10L364.77-53.10L359.37-18.45L359.37-18.45Q372.15-18.81 380.97-24.88L380.97-24.88L380.97-24.88Q389.79-30.96 389.79-39.06" fill="#71a7d1" stroke="none" stroke-width="none" transform="translate(-246.2400188446045,23.753453076102524)" style="fill: rgb(116, 123, 199);"></path></g><g class="path" style="transform: scale(0.91); transform-origin: 159.345px 6.65345px; animation: 1s linear -0.18s infinite normal forwards running breath-d52287fb-9d3d-45fa-b337-666f4c74f9b4;"><path d="M413.10-2.43L413.10-2.43Q410.40 0.81 406.35 0.81L406.35 0.81L406.35 0.81Q402.30 0.81 400.00-1.26L400.00-1.26L400.00-1.26Q397.71-3.33 397.71-6.66L397.71-6.66L397.71-6.66Q397.71-7.83 399.15-16.47L399.15-16.47L402.12-32.58L398.34-32.58L398.52-34.20L402.39-34.20L402.39-34.20Q409.05-34.20 412.20-34.74L412.20-34.74L413.46-35.01L407.25-0.99L407.25-0.99Q409.95-1.26 411.75-3.51L411.75-3.51L413.10-2.43" fill="#71a7d1" stroke="none" stroke-width="none" transform="translate(-246.2400188446045,23.753453076102524)" style="fill: rgb(113, 167, 209);"></path></g><g class="path" style="transform: scale(0.91); transform-origin: 163.575px -24.5315px; animation: 1s linear -0.12s infinite normal forwards running breath-d52287fb-9d3d-45fa-b337-666f4c74f9b4;"><path d="M405.18-43.65L405.18-43.65L405.18-43.65Q403.29-45.54 403.29-48.24L403.29-48.24L403.29-48.24Q403.29-50.94 405.18-52.88L405.18-52.88L405.18-52.88Q407.07-54.81 409.77-54.81L409.77-54.81L409.77-54.81Q412.47-54.81 414.40-52.88L414.40-52.88L414.40-52.88Q416.34-50.94 416.34-48.24L416.34-48.24L416.34-48.24Q416.34-45.54 414.40-43.65L414.40-43.65L414.40-43.65Q412.47-41.76 409.77-41.76L409.77-41.76L409.77-41.76Q407.07-41.76 405.18-43.65" fill="#71a7d1" stroke="none" stroke-width="none" transform="translate(-246.2400188446045,23.753453076102524)" style="fill: rgb(98, 180, 213);"></path></g><g class="path" style="transform: scale(0.91); transform-origin: 191.43px 6.65345px; animation: 1s linear -0.06s infinite normal forwards running breath-d52287fb-9d3d-45fa-b337-666f4c74f9b4;"><path d="M450.00 0.81L450.00 0.81L450.00 0.81Q442.08 0.81 441.36-6.12L441.36-6.12L441.36-6.12Q437.40 0.81 431.37 0.81L431.37 0.81L431.37 0.81Q425.34 0.81 421.78-2.83L421.78-2.83L421.78-2.83Q418.23-6.48 418.23-13.05L418.23-13.05L418.23-13.05Q418.23-23.31 423.27-29.16L423.27-29.16L423.27-29.16Q428.31-35.01 436.32-35.01L436.32-35.01L436.32-35.01Q442.89-35.01 445.05-28.80L445.05-28.80L445.05-28.80Q445.50-31.50 446.04-34.20L446.04-34.20L446.04-34.20Q452.70-34.20 455.94-34.74L455.94-34.74L457.11-35.01L450.90-0.99L450.90-0.99Q453.60-1.26 455.40-3.51L455.40-3.51L456.75-2.43L456.75-2.43Q454.05 0.81 450.00 0.81zM428.40-8.46L428.40-8.46Q428.40-4.41 429.43-2.83L429.43-2.83L429.43-2.83Q430.47-1.26 432.63-1.26L432.63-1.26L432.63-1.26Q434.79-1.26 437.04-3.60L437.04-3.60L437.04-3.60Q440.01-6.66 441.81-11.34L441.81-11.34L441.81-11.34Q442.08-12.51 442.84-16.96L442.84-16.96L442.84-16.96Q443.61-21.42 444.15-24.30L444.15-24.30L444.15-24.30Q443.88-27.72 442.26-30.24L442.26-30.24L442.26-30.24Q440.64-32.76 438.21-32.76L438.21-32.76L438.21-32.76Q433.80-32.76 431.10-24.88L431.10-24.88L431.10-24.88Q428.40-17.01 428.40-8.46L428.40-8.46" fill="#71a7d1" stroke="none" stroke-width="none" transform="translate(-246.2400188446045,23.753453076102524)" style="fill: rgb(94, 111, 163);"></path></g><g class="path" style="transform: scale(0.91); transform-origin: 232.11px 6.65345px; animation: 1s linear 0s infinite normal forwards running breath-d52287fb-9d3d-45fa-b337-666f4c74f9b4;"><path d="M469.44-33.30L469.44-33.30L469.44-33.30Q467.19-33.30 465.66-31.77L465.66-31.77L465.66-31.77Q464.13-30.24 464.13-28.17L464.13-28.17L464.13-28.17Q464.13-26.10 465.30-23.94L465.30-23.94L463.68-23.31L463.68-23.31Q462.24-25.11 462.24-28.08L462.24-28.08L462.24-28.08Q462.24-31.05 464.26-33.03L464.26-33.03L464.26-33.03Q466.29-35.01 469.17-35.01L469.17-35.01L469.17-35.01Q472.05-35.01 476.86-34.16L476.86-34.16L476.86-34.16Q481.68-33.30 487.66-33.34L487.66-33.34L487.66-33.34Q493.65-33.39 496.53-34.11L496.53-34.11L472.68-2.34L472.68-2.34Q477.45-0.90 483.12-0.81L483.12-0.81L483.12-0.81Q486.72-0.81 489.37-2.83L489.37-2.83L489.37-2.83Q492.03-4.86 492.84-6.84L492.84-6.84L493.65-8.82L495.18-8.28L495.18-8.28Q494.37-5.04 491.49-2.11L491.49-2.11L491.49-2.11Q488.61 0.81 482.89 0.81L482.89 0.81L482.89 0.81Q477.18 0.81 472.50-0.45L472.50-0.45L472.50-0.45Q467.82-1.71 465.66-1.71L465.66-1.71L465.66-1.71Q463.50-1.71 461.79 0L461.79 0L460.17 0L483.75-31.86L483.75-31.86Q479.07-32.04 475.38-32.67L475.38-32.67L475.38-32.67Q471.69-33.30 469.44-33.30" fill="#71a7d1" stroke="none" stroke-width="none" transform="translate(-246.2400188446045,23.753453076102524)" style="fill: rgb(49, 66, 144);"></path></g></g>
</g>
</svg>